<?xml version="1.0" encoding="UTF-8" standalone="no"?>
<!DOCTYPE svg PUBLIC "-//W3C//DTD SVG 20010904//EN" "http://www.w3.org/TR/2001/REC-SVG-20010904/DTD/svg10.dtd">
<svg version="1.0" xmlns="http://www.w3.org/2000/svg" width="939.000000pt" height="939.000000pt" viewBox="0 0 939.000000 939.000000" preserveAspectRatio="xMidYMid meet">
<metadata>
Created by potrace 1.14, written by Peter Selinger 2001-2017
</metadata>
<g transform="translate(0.000000,939.000000) scale(0.100000,-0.100000)" fill="#000000" stroke="none">
<path d="M5515 8245 c-395 -228 -723 -419 -727 -423 -7 -7 1382 -817 1435 -837 25 -10 1471 826 1454 841 -9 9 -1414 821 -1437 832 -3 1 -329 -185 -725 -413z"/>
<path d="M7052 7356 c-392 -227 -717 -417 -722 -422 -6 -6 253 -161 717 -429 l726 -419 41 22 c23 13 350 202 728 420 524 302 685 400 675 408 -16 16 -1437 834 -1445 833 -4 0 -328 -186 -720 -413z"/>
<path d="M3963 7347 c-392 -227 -712 -414 -713 -417 0 -8 1432 -835 1445 -835 6 0 333 187 728 414 559 323 715 417 705 427 -7 6 -179 107 -383 224 -203 117 -406 234 -450 260 -44 26 -145 84 -225 130 -80 46 -193 112 -253 147 -59 35 -115 63 -125 62 -9 0 -337 -186 -729 -412z"/>
<path d="M1662 6899 l3 -840 710 -411 c391 -226 716 -413 723 -415 9 -4 12 167 12 835 l0 840 -92 53 c-51 29 -376 216 -721 416 -346 200 -631 363 -633 363 -2 0 -3 -378 -2 -841z"/>
<path d="M3200 6013 l0 -838 692 -400 c380 -220 706 -408 725 -418 l33 -17 0 837 0 838 -692 400 c-381 220 -708 408 -725 418 l-33 19 0 -839z"/>
<path d="M6270 6040 c0 -721 2 -811 15 -808 19 4 1404 801 1404 808 0 7 -1385 804 -1404 808 -13 3 -15 -83 -15 -808z"/>
<path d="M890 5574 c-393 -228 -715 -418 -715 -424 0 -8 1045 -617 1381 -806 l61 -34 704 406 c387 223 714 412 727 421 23 14 -3 30 -702 434 -399 230 -729 419 -734 418 -4 0 -329 -187 -722 -415z"/>
<path d="M6998 5545 l-728 -420 0 -837 c0 -563 3 -838 10 -838 10 0 1427 815 1443 829 4 4 6 385 5 847 l-3 839 -727 -420z"/>
<path d="M4740 5150 l0 -812 68 39 c208 116 1332 769 1332 773 0 5 -1366 798 -1392 808 -4 2 -8 -362 -8 -808z"/>
<path d="M120 4232 l0 -838 692 -400 c380 -219 706 -407 725 -417 l33 -17 0 839 0 839 -37 22 c-134 80 -1403 810 -1408 810 -3 0 -5 -377 -5 -838z"/>
<path d="M2380 4655 l-715 -414 -3 -841 c-1 -463 1 -839 5 -837 5 2 331 190 726 417 l717 413 0 838 c0 462 -3 839 -7 838 -5 0 -330 -186 -723 -414z"/>
<path d="M5483 4667 c-381 -220 -693 -403 -693 -406 0 -4 292 -174 648 -379 356 -205 671 -387 700 -403 l52 -31 0 811 c0 446 -3 811 -7 810 -5 -1 -320 -181 -700 -402z"/>
<path d="M3967 3793 c-576 -334 -716 -418 -705 -428 18 -17 1387 -806 1418 -818 22 -8 69 16 395 205 204 118 521 301 705 408 184 106 341 198 348 205 11 10 -125 92 -704 426 -394 228 -722 415 -728 416 -6 0 -334 -186 -729 -414z"/>
<path d="M120 2457 l0 -842 677 -390 c372 -214 698 -402 725 -418 l48 -27 -2 842 -3 842 -440 254 c-242 140 -567 328 -722 417 l-283 163 0 -841z"/>
</g>
</svg>
